# xmcd
#
# Track frame offsets:
#	150
#	11480
#	23230
#	34570
#	48660
#	63855
#	75855
#	87940
#	103389
#	115356
#
# Disc length: 1728 seconds
#
# Revision: 0
# Processed by: cddbd v1.5.2PL0 Copyright (c) Steve Scherf et al.
# Submitted via: dBpowerAMP V4.0
#
DISCID=7306be0a
DTITLE=Conway Twitty - Country Hit Maker
DYEAR=2004
DGENRE=Country
TTITLE0=It's Only Make Believe
TTITLE1=To See An Angle Cry
TTITLE2=Hello Darlin'
TTITLE3=Fifteen Years Ago
TTITLE4=Lost Her Love After Our Last Date
TTITLE5=I Can't See Me Without You
TTITLE6=She Needs Someone To Hold Her (Wen She Cries)
TTITLE7=Touch The Hand
TTITLE8=I'm Not Through Loving You Yet
TTITLE9=You've Never Been This Far Before
EXTD=
EXTT0=
EXTT1=
EXTT2=
EXTT3=
EXTT4=
EXTT5=
EXTT6=
EXTT7=
EXTT8=
EXTT9=
PLAYORDER=
